<svg width="32" height="33" viewBox="0 0 32 33" fill="none" xmlns="http://www.w3.org/2000/svg">
<rect width="32" height="32.8773" fill="#222222"/>
<path d="M21.4414 15.3086C21.4223 15.6949 21.1293 16.1719 20.657 16.6303V22.6708C20.6564 22.8264 20.5951 22.9583 20.4916 23.0613C20.3876 23.1622 20.2526 23.222 20.094 23.223H10.2498C10.0922 23.222 9.95668 23.1622 9.85265 23.0613C9.74911 22.9583 9.68836 22.8264 9.68783 22.6708V13.0177C9.68836 12.8626 9.74911 12.7303 9.85265 12.6272C9.95668 12.5263 10.0922 12.4666 10.2498 12.4655H15.4781C15.9009 11.9103 16.3938 11.3417 16.9522 10.8205C16.9547 10.8174 16.9568 10.8143 16.9594 10.8112H10.2498C9.6317 10.8107 9.0636 11.0594 8.65927 11.4571C8.2529 11.8547 7.99947 12.411 8 13.0177V22.6709C7.99947 23.2776 8.2529 23.8349 8.65927 24.2315C9.06357 24.6291 9.6317 24.8773 10.2498 24.8773H20.094C20.7131 24.8773 21.2812 24.6291 21.6855 24.2314C22.0909 23.8349 22.3448 23.2775 22.3443 22.6708V14.7071C22.3443 14.7071 22.3402 14.7019 22.3335 14.6967C22.0775 14.9162 21.7793 15.1253 21.4414 15.3086Z" fill="white"/>
<path d="M23.979 8C23.979 8 23.4619 8.7726 20.0842 9.91548C16.64 11.0811 14.52 15.8227 14.52 15.8227C14.0096 16.7941 11.9921 20.83 11.9921 20.83C11.4364 21.8725 12.4546 22.4885 13.0521 21.412C14.197 19.3456 14.9361 17.4574 16.677 17.4039C19.2168 17.3256 20.9535 15.1078 20.4071 15.2108C19.688 15.5239 18.1027 15.2345 19.0365 15.0903C21.278 14.9105 22.6594 13.2257 22.2092 13.1114C21.4145 13.4174 20.6733 13.1269 20.5281 13.0393C24.4843 12.5582 23.979 8 23.979 8Z" fill="white"/>
</svg>
