<svg width="168" height="47" viewBox="0 0 168 47" fill="none" xmlns="http://www.w3.org/2000/svg">
<path d="M40.0638 20.7157C40.0255 21.4935 39.4353 22.4538 38.4844 23.3768V35.5393C38.4833 35.8525 38.3599 36.118 38.1515 36.3254C37.942 36.5287 37.6703 36.649 37.3508 36.651H17.5298C17.2125 36.649 16.9397 36.5286 16.7303 36.3254C16.5218 36.118 16.3995 35.8525 16.3984 35.5393V16.1029C16.3995 15.7908 16.5218 15.5242 16.7303 15.3168C16.9397 15.1135 17.2125 14.9933 17.5298 14.9912H28.0569C28.9083 13.8733 29.9007 12.7284 31.0249 11.6789C31.0301 11.6727 31.0343 11.6664 31.0395 11.6602H17.5298C16.2854 11.6592 15.1415 12.1601 14.3274 12.9607C13.5092 13.7614 12.9989 14.8814 13 16.103V35.5394C12.9989 36.761 13.5092 37.8831 14.3274 38.6816C15.1415 39.4821 16.2854 39.982 17.5298 39.982H37.351C38.5975 39.982 39.7414 39.4822 40.5554 38.6815C41.3716 37.883 41.8828 36.7609 41.8818 35.5392V19.5045C41.8818 19.5045 41.8735 19.4941 41.86 19.4837C41.3446 19.9255 40.7441 20.3465 40.0638 20.7157Z" fill="white"/>
<path d="M45.1734 6C45.1734 6 44.1322 7.55561 37.3313 9.85676C30.3965 12.2036 26.128 21.7507 26.128 21.7507C25.1003 23.7066 21.0381 31.8329 21.0381 31.8329C19.9191 33.9319 21.9693 35.1722 23.1723 33.0047C25.4777 28.8441 26.9658 25.0423 30.4711 24.9344C35.5848 24.7768 39.0817 20.3113 37.9814 20.5187C36.5336 21.1492 33.3416 20.5664 35.2218 20.276C39.735 19.9141 42.5164 16.5219 41.61 16.2917C40.0099 16.9077 38.5175 16.3228 38.2251 16.1465C46.1907 15.1779 45.1734 6 45.1734 6Z" fill="white"/>
<path d="M37.6985 39.9337L41.5643 19.9406H54.9875C56.4843 19.9406 57.7762 20.2106 58.8631 20.7508C59.9565 21.2845 60.7993 22.0525 61.3915 23.0547C61.9838 24.0505 62.2799 25.2317 62.2799 26.5984C62.2799 27.9847 61.9773 29.1626 61.372 30.1324C60.7667 31.0956 59.9077 31.831 58.7948 32.3386C57.6819 32.8398 56.3639 33.0903 54.841 33.0903H49.6182V29.283H53.9429C54.6718 29.283 55.2803 29.1887 55.7684 28.9999C56.2631 28.8047 56.6373 28.5118 56.8911 28.1213C57.1449 27.7243 57.2718 27.2167 57.2718 26.5984C57.2718 25.9801 57.1449 25.4693 56.8911 25.0657C56.6373 24.6557 56.2631 24.3498 55.7684 24.1481C55.2738 23.9398 54.6653 23.8357 53.9429 23.8357H51.5609V39.9337H37.6985ZM57.9845 30.7962L62.9632 39.9337H57.6916L52.8105 30.7962H57.9845Z" fill="white"/>
<path d="M71.6443 40.2168C70.0759 40.2168 68.7222 39.9077 67.5832 39.2894C66.4508 38.6646 65.5787 37.7762 64.967 36.6243C64.3617 35.4658 64.0591 34.0893 64.0591 32.4948C64.0591 30.9459 64.3649 29.5922 64.9767 28.4337C65.5885 27.2688 66.4508 26.3641 67.5637 25.7198C68.6766 25.069 69.988 24.7436 71.4979 24.7436C72.5653 24.7436 73.5415 24.9096 74.4266 25.2415C75.3117 25.5734 76.0764 26.0648 76.7207 26.7156C77.365 27.3664 77.8662 28.1702 78.2241 29.1269C78.5821 30.077 78.761 31.1672 78.761 32.3972V33.5882H65.7284V30.8157H74.3192C74.3127 30.3081 74.1923 29.8558 73.958 29.4588C73.7237 29.0618 73.4016 28.7526 72.9915 28.5314C72.588 28.3036 72.1227 28.1897 71.5955 28.1897C71.0619 28.1897 70.5835 28.3101 70.1605 28.5509C69.7374 28.7852 69.4023 29.1073 69.155 29.5173C68.9077 29.9209 68.7775 30.3797 68.7645 30.8938V33.7151C68.7645 34.3269 68.8849 34.8638 69.1257 35.3259C69.3665 35.7815 69.7082 36.1362 70.1507 36.39C70.5933 36.6438 71.1204 36.7707 71.7322 36.7707C72.1552 36.7707 72.5392 36.7121 72.8842 36.595C73.2291 36.4778 73.5252 36.3054 73.7725 36.0776C74.0198 35.8498 74.2053 35.57 74.329 35.238L78.7122 35.3649C78.53 36.3477 78.1298 37.2035 77.5115 37.9324C76.8997 38.6548 76.0959 39.2178 75.1002 39.6213C74.1044 40.0183 72.9525 40.2168 71.6443 40.2168Z" fill="white"/>
<path d="M98.2148 19.9406V39.9337H94.1147L86.1584 28.3947H86.0315V39.9337H81.1992V19.9406H85.3579L93.2263 31.46H93.3923V19.9406H98.2148Z" fill="white"/>
<path d="M108.263 40.2168C106.694 40.2168 105.34 39.9077 104.202 39.2894C103.069 38.6646 102.197 37.7762 101.585 36.6243C100.98 35.4658 100.677 34.0893 100.677 32.4948C100.677 30.9459 100.983 29.5922 101.595 28.4337C102.207 27.2688 103.069 26.3641 104.182 25.7198C105.295 25.069 106.606 24.7436 108.116 24.7436C109.184 24.7436 110.16 24.9096 111.045 25.2415C111.93 25.5734 112.695 26.0648 113.339 26.7156C113.983 27.3664 114.484 28.1702 114.842 29.1269C115.2 30.077 115.379 31.1672 115.379 32.3972V33.5882H102.347V30.8157H110.938C110.931 30.3081 110.811 29.8558 110.576 29.4588C110.342 29.0618 110.02 28.7526 109.61 28.5314C109.206 28.3036 108.741 28.1897 108.214 28.1897C107.68 28.1897 107.202 28.3101 106.779 28.5509C106.356 28.7852 106.021 29.1073 105.773 29.5173C105.526 29.9209 105.396 30.3797 105.383 30.8938V33.7151C105.383 34.3269 105.503 34.8638 105.744 35.3259C105.985 35.7815 106.326 36.1362 106.769 36.39C107.212 36.6438 107.739 36.7707 108.351 36.7707C108.774 36.7707 109.158 36.7121 109.502 36.595C109.847 36.4778 110.144 36.3054 110.391 36.0776C110.638 35.8498 110.824 35.57 110.947 35.238L115.331 35.3649C115.148 36.3477 114.748 37.2035 114.13 37.9324C113.518 38.6548 112.714 39.2178 111.718 39.6213C110.723 40.0183 109.571 40.2168 108.263 40.2168Z" fill="white"/>
<path d="M120.458 39.9337L116.553 24.9388H121.347L123.367 34.5449H123.494L125.661 24.9388H130.338L132.563 34.4766H132.69L134.653 24.9388H139.446L135.531 39.9337H130.425L128.083 31.1965H127.917L125.574 39.9337H120.458Z" fill="white"/>
<path d="M154.453 29.5173L150.07 29.6345C150.024 29.3221 149.9 29.0455 149.699 28.8047C149.497 28.5574 149.233 28.3654 148.908 28.2287C148.589 28.0855 148.218 28.014 147.795 28.014C147.242 28.014 146.77 28.1246 146.379 28.3459C145.995 28.5671 145.807 28.8665 145.813 29.244C145.807 29.5369 145.924 29.7907 146.165 30.0055C146.412 30.2202 146.851 30.3927 147.483 30.5229L150.372 31.0695C151.869 31.3559 152.982 31.831 153.711 32.4948C154.446 33.1587 154.817 34.0373 154.824 35.1307C154.817 36.1589 154.511 37.0538 153.906 37.8153C153.307 38.5767 152.487 39.169 151.446 39.592C150.405 40.0085 149.214 40.2168 147.873 40.2168C145.732 40.2168 144.043 39.7775 142.806 38.8989C141.576 38.0138 140.874 36.8293 140.698 35.3454L145.413 35.2283C145.517 35.775 145.787 36.1915 146.223 36.4778C146.659 36.7642 147.216 36.9074 147.893 36.9074C148.504 36.9074 149.002 36.7935 149.386 36.5657C149.77 36.3379 149.965 36.0353 149.972 35.6578C149.965 35.3194 149.816 35.0493 149.523 34.8475C149.23 34.6393 148.771 34.4766 148.146 34.3594L145.53 33.8616C144.027 33.5882 142.907 33.0838 142.172 32.3484C141.436 31.6065 141.072 30.6628 141.079 29.5173C141.072 28.5151 141.339 27.6593 141.879 26.9499C142.419 26.234 143.187 25.6873 144.183 25.3098C145.179 24.9323 146.353 24.7436 147.707 24.7436C149.738 24.7436 151.339 25.1699 152.51 26.0224C153.682 26.8685 154.329 28.0335 154.453 29.5173Z" fill="white"/>
</svg>
